# xmcd
#
# Track frame offsets: 
#        183
#        18320
#        38368
#        64205
#        84963
#        110873
#        124618
#        154665
#        179340
#        196938
#        221183
#        239968
#        263645
#        281983
#
# Disc length: 4129 seconds
#
# Revision: 3
# Processed by: cddbd v1.5.2PL0 Copyright (c) Steve Scherf et al.
# Submitted via: ExactAudioCopy v0.95b4
#
DISCID=cb101f0e
DTITLE=Magazine - Rays and Hail: 1978-1981
DYEAR=1987
DGENRE=New Wave
TTITLE0=Shot By Both Sides
TTITLE1=Definitive Gaze
TTITLE2=Motorcade
TTITLE3=The Light Pours Out Of Me
TTITLE4=Feed The Enemy
TTITLE5=Rhythm Of Cruelty
TTITLE6=Back To Nature
TTITLE7=Permafrost
TTITLE8=Because You're Frightened
TTITLE9=You Never Knew Me
TTITLE10=A Song From Under The Floorboards
TTITLE11=I Want To Burn Again
TTITLE12=About The Weather
TTITLE13=Parade
EXTD=A compilation of tracks compiled by Howard Devoto and Declan Cogl
EXTD=an
EXTT0=
EXTT1=
EXTT2=
EXTT3=
EXTT4=
EXTT5=
EXTT6=
EXTT7=
EXTT8=
EXTT9=
EXTT10=
EXTT11=
EXTT12=
EXTT13=
PLAYORDER=
